<?xml version="1.0" encoding="UTF-8"?>
<svg xmlns="http://www.w3.org/2000/svg" version="1.1" viewBox="0 0 136 140">
  <defs>
    <style>
      .cls-1 {
        fill: #0c1111;
      }

      .cls-2 {
        fill: #00d492;
      }

      .cls-2, .cls-3 {
        fill-rule: evenodd;
      }

      .cls-3 {
        fill: #f4f4f5;
      }
    </style>
  </defs>
  <!-- Generator: Adobe Illustrator 28.7.1, SVG Export Plug-In . SVG Version: 1.2.0 Build 142)  -->
  <g>
    <g id="Text">
      <path class="cls-3" d="M122,2H14C7.4,2,2,7.4,2,14v104c0,6.6,5.4,12,12,12h12v4c0,2.2,1.8,4,4,4h16c2.2,0,4-1.8,4-4v-4h40v4c0,2.2,1.8,4,4,4h16c2.2,0,4-1.8,4-4v-4h8c6.6,0,12-5.4,12-12V14c0-6.6-5.4-12-12-12Z"/>
      <rect class="cls-1" x="10" y="10" width="116" height="112" rx="4" ry="4"/>
      <path class="cls-2" d="M26,22v12h-4c-2.2,0-4,1.8-4,4v12c0,2.2,1.8,4,4,4h4v24h-4c-2.2,0-4,1.8-4,4v12c0,2.2,1.8,4,4,4h4v12h88V22H26Z"/>
      <path class="cls-1" d="M98,62h-12.6c-.4-1.4-.9-2.8-1.7-4l9-9c1.6-1.6,1.6-4.1,0-5.7s-4.1-1.6-5.7,0l-9,9c-1.2-.7-2.6-1.3-4-1.7v-12.7c0-2.2-1.8-4-4-4s-4,1.8-4,4v12.6c-1.4.4-2.8.9-4,1.7l-8.9-8.9c-1.6-1.6-4.1-1.6-5.7,0s-1.6,4.1,0,5.7l8.9,8.9c-.7,1.3-1.3,2.6-1.7,4h-12.6c-2.2,0-4,1.8-4,4s1.8,4,4,4h12.6c.4,1.4.9,2.8,1.7,4.1l-8.9,8.9c-1.6,1.6-1.6,4.1,0,5.7s1.8,1.2,2.8,1.2,2-.4,2.8-1.2l8.9-8.9c1.3.7,2.6,1.3,4.1,1.7v12.6c0,2.2,1.8,4,4,4s4-1.8,4-4v-12.6c1.4-.4,2.8-.9,4-1.7l8.9,8.9c.8.8,1.8,1.2,2.8,1.2s2-.4,2.8-1.2c1.6-1.6,1.6-4.1,0-5.7l-8.9-8.9c.7-1.2,1.3-2.6,1.7-4h12.6c2.2,0,4-1.8,4-4s-1.8-4-4-4Z"/>
      <path class="cls-3" d="M62,66c0,4.4,3.6,7.9,7.9,7.9s7.9-3.6,7.9-7.9-3.6-7.9-7.9-7.9-7.9,3.6-7.9,7.9Z"/>
    </g>
  </g>
</svg>